Griffith_Gothic-Bold.ufo
<glyph name="exclam" format="1">
  <advance width="261"/>
  <unicode hex="0021"/>
  <outline>
    <contour>
      <point x="196" y="720" type="line"/>
      <point x="161" y="221" type="line"/>
      <point x="100" y="221" type="line"/>
      <point x="65" y="720" type="line"/>
    </contour>
    <contour>
      <point x="196" y="58" type="curve" smooth="yes"/>
      <point x="196" y="21"/>
      <point x="168" y="-7"/>
      <point x="131" y="-7" type="curve" smooth="yes"/>
      <point x="93" y="-7"/>
      <point x="65" y="21"/>
      <point x="65" y="58" type="curve" smooth="yes"/>
      <point x="65" y="96"/>
      <point x="93" y="124"/>
      <point x="131" y="124" type="curve" smooth="yes"/>
      <point x="168" y="124"/>
      <point x="196" y="96"/>
    </contour>
  </outline>
</glyph>
<glyph name="parenleft" format="1">
  <advance width="343"/>
  <unicode hex="0028"/>
  <outline>
    <contour>
      <point x="319" y="-95" type="curve"/>
      <point x="225" y="-95" type="line"/>
      <point x="131" y="2"/>
      <point x="49" y="135"/>
      <point x="49" y="320" type="curve" smooth="yes"/>
      <point x="49" y="505"/>
      <point x="131" y="638"/>
      <point x="225" y="735" type="curve"/>
      <point x="319" y="735" type="line"/>
      <point x="216" y="612"/>
      <point x="163" y="481"/>
      <point x="163" y="320" type="curve" smooth="yes"/>
      <point x="163" y="159"/>
      <point x="216" y="28"/>
    </contour>
  </outline>
</glyph>
<glyph name="parenright" format="1">
  <advance width="343"/>
  <unicode hex="0029"/>
  <outline>
    <contour>
      <point x="294" y="320" type="curve" smooth="yes"/>
      <point x="294" y="135"/>
      <point x="211" y="2"/>
      <point x="117" y="-95" type="curve"/>
      <point x="23" y="-95" type="line"/>
      <point x="126" y="28"/>
      <point x="180" y="159"/>
      <point x="180" y="320" type="curve" smooth="yes"/>
      <point x="180" y="481"/>
      <point x="126" y="612"/>
      <point x="23" y="735" type="curve"/>
      <point x="117" y="735" type="line"/>
      <point x="211" y="638"/>
      <point x="294" y="505"/>
    </contour>
  </outline>
</glyph>
<glyph name="plus" format="1">
  <advance width="600"/>
  <unicode hex="002B"/>
  <outline>
    <contour>
      <point x="558" y="309" type="line"/>
      <point x="347" y="309" type="line"/>
      <point x="347" y="97" type="line"/>
      <point x="253" y="97" type="line"/>
      <point x="253" y="309" type="line"/>
      <point x="42" y="309" type="line"/>
      <point x="42" y="401" type="line"/>
      <point x="253" y="401" type="line"/>
      <point x="253" y="613" type="line"/>
      <point x="347" y="613" type="line"/>
      <point x="347" y="401" type="line"/>
      <point x="558" y="401" type="line"/>
    </contour>
  </outline>
</glyph>
<glyph name="period" format="1">
  <advance width="210"/>
  <unicode hex="002E"/>
  <outline>
    <contour>
      <point x="173" y="61" type="curve" smooth="yes"/>
      <point x="173" y="22"/>
      <point x="144" y="-7"/>
      <point x="105" y="-7" type="curve" smooth="yes"/>
      <point x="66" y="-7"/>
      <point x="38" y="22"/>
      <point x="38" y="61" type="curve" smooth="yes"/>
      <point x="38" y="99"/>
      <point x="66" y="128"/>
      <point x="105" y="128" type="curve" smooth="yes"/>
      <point x="144" y="128"/>
      <point x="173" y="99"/>
    </contour>
  </outline>
</glyph>
<glyph name="slash" format="1">
  <advance width="408"/>
  <unicode hex="002F"/>
  <outline>
    <contour>
      <point x="394" y="735" type="line"/>
      <point x="87" y="-95" type="line"/>
      <point x="-16" y="-95" type="line"/>
      <point x="291" y="735" type="line"/>
    </contour>
  </outline>
</glyph>
<glyph name="four" format="1">
  <advance width="595"/>
  <unicode hex="0034"/>
  <outline>
    <contour>
      <point x="565" y="191" type="line"/>
      <point x="470" y="191" type="line"/>
      <point x="470" y="0" type="line"/>
      <point x="361" y="0" type="line"/>
      <point x="361" y="191" type="line"/>
      <point x="33" y="191" type="line"/>
      <point x="33" y="278" type="line"/>
      <point x="325" y="720" type="line"/>
      <point x="470" y="720" type="line"/>
      <point x="470" y="257" type="line"/>
      <point x="565" y="257" type="line"/>
    </contour>
    <contour>
      <point x="361" y="257" type="line"/>
      <point x="361" y="629" type="line"/>
      <point x="350" y="629" type="line"/>
      <point x="110" y="268" type="line"/>
      <point x="110" y="257" type="line"/>
    </contour>
  </outline>
</glyph>
<glyph name="five" format="1">
  <advance width="555"/>
  <unicode hex="0035"/>
  <outline>
    <contour>
      <point x="516" y="245" type="line" smooth="yes"/>
      <point x="516" y="73"/>
      <point x="394" y="-10"/>
      <point x="238" y="-10" type="curve" smooth="yes"/>
      <point x="153" y="-10"/>
      <point x="100" y="2"/>
      <point x="29" y="34" type="curve"/>
      <point x="59" y="118" type="line"/>
      <point x="126" y="87"/>
      <point x="173" y="77"/>
      <point x="234" y="77" type="curve" smooth="yes"/>
      <point x="338" y="77"/>
      <point x="403" y="138"/>
      <point x="403" y="243" type="curve" smooth="yes"/>
      <point x="403" y="247" type="line" smooth="yes"/>
      <point x="403" y="337"/>
      <point x="358" y="385"/>
      <point x="279" y="385" type="curve" smooth="yes"/>
      <point x="228" y="385"/>
      <point x="194" y="364"/>
      <point x="156" y="330" type="curve"/>
      <point x="66" y="330" type="line"/>
      <point x="101" y="720" type="line"/>
      <point x="477" y="720" type="line"/>
      <point x="477" y="631" type="line"/>
      <point x="176" y="631" type="line"/>
      <point x="153" y="404" type="line"/>
      <point x="161" y="404" type="line"/>
      <point x="203" y="443"/>
      <point x="242" y="466"/>
      <point x="315" y="466" type="curve" smooth="yes"/>
      <point x="436" y="466"/>
      <point x="516" y="392"/>
      <point x="516" y="253" type="curve" smooth="yes"/>
    </contour>
  </outline>
</glyph>
<glyph name="six" format="1">
  <advance width="578"/>
  <unicode hex="0036"/>
  <outline>
    <contour>
      <point x="549" y="231" type="curve" smooth="yes"/>
      <point x="549" y="82"/>
      <point x="443" y="-12"/>
      <point x="292" y="-12" type="curve" smooth="yes"/>
      <point x="141" y="-12"/>
      <point x="42" y="75"/>
      <point x="42" y="252" type="curve" smooth="yes"/>
      <point x="42" y="416"/>
      <point x="128" y="586"/>
      <point x="275" y="720" type="curve"/>
      <point x="412" y="720" type="line"/>
      <point x="270" y="610"/>
      <point x="178" y="480"/>
      <point x="154" y="377" type="curve"/>
      <point x="161" y="377" type="line"/>
      <point x="204" y="426"/>
      <point x="255" y="457"/>
      <point x="335" y="457" type="curve" smooth="yes"/>
      <point x="455" y="457"/>
      <point x="549" y="376"/>
    </contour>
    <contour>
      <point x="439" y="225" type="curve" smooth="yes"/>
      <point x="439" y="318"/>
      <point x="388" y="380"/>
      <point x="300" y="380" type="curve" smooth="yes"/>
      <point x="210" y="380"/>
      <point x="151" y="311"/>
      <point x="151" y="224" type="curve" smooth="yes"/>
      <point x="151" y="131"/>
      <point x="209" y="66"/>
      <point x="295" y="66" type="curve" smooth="yes"/>
      <point x="380" y="66"/>
      <point x="439" y="130"/>
    </contour>
  </outline>
</glyph>
<glyph name="seven" format="1">
  <advance width="519"/>
  <unicode hex="0037"/>
  <outline>
    <contour>
      <point x="503" y="654" type="line"/>
      <point x="379" y="483"/>
      <point x="261" y="223"/>
      <point x="216" y="0" type="curve"/>
      <point x="100" y="0" type="line"/>
      <point x="162" y="265"/>
      <point x="286" y="492"/>
      <point x="385" y="630" type="curve"/>
      <point x="20" y="630" type="line"/>
      <point x="20" y="720" type="line"/>
      <point x="503" y="720" type="line"/>
    </contour>
  </outline>
</glyph>
<glyph name="eight" format="1">
  <advance width="594"/>
  <unicode hex="0038"/>
  <outline>
    <contour>
      <point x="554" y="197" type="curve" smooth="yes"/>
      <point x="554" y="62"/>
      <point x="434" y="-12"/>
      <point x="297" y="-12" type="curve" smooth="yes"/>
      <point x="160" y="-12"/>
      <point x="41" y="60"/>
      <point x="41" y="195" type="curve" smooth="yes"/>
      <point x="41" y="301"/>
      <point x="111" y="362"/>
      <point x="184" y="382" type="curve"/>
      <point x="184" y="388" type="line"/>
      <point x="121" y="408"/>
      <point x="61" y="458"/>
      <point x="61" y="546" type="curve" smooth="yes"/>
      <point x="61" y="658"/>
      <point x="162" y="732"/>
      <point x="297" y="732" type="curve" smooth="yes"/>
      <point x="433" y="732"/>
      <point x="534" y="660"/>
      <point x="534" y="548" type="curve" smooth="yes"/>
      <point x="534" y="460"/>
      <point x="473" y="409"/>
      <point x="411" y="388" type="curve"/>
      <point x="411" y="382" type="line"/>
      <point x="483" y="362"/>
      <point x="554" y="303"/>
    </contour>
    <contour>
      <point x="426" y="535" type="curve" smooth="yes"/>
      <point x="426" y="607"/>
      <point x="376" y="654"/>
      <point x="297" y="654" type="curve" smooth="yes"/>
      <point x="218" y="654"/>
      <point x="169" y="606"/>
      <point x="169" y="537" type="curve" smooth="yes"/>
      <point x="169" y="463"/>
      <point x="224" y="415"/>
      <point x="297" y="415" type="curve" smooth="yes"/>
      <point x="370" y="415"/>
      <point x="426" y="459"/>
    </contour>
    <contour>
      <point x="444" y="204" type="curve" smooth="yes"/>
      <point x="444" y="294"/>
      <point x="380" y="347"/>
      <point x="297" y="347" type="curve" smooth="yes"/>
      <point x="214" y="347"/>
      <point x="150" y="295"/>
      <point x="150" y="206" type="curve" smooth="yes"/>
      <point x="150" y="118"/>
      <point x="212" y="66"/>
      <point x="297" y="66" type="curve" smooth="yes"/>
      <point x="382" y="66"/>
      <point x="444" y="116"/>
    </contour>
  </outline>
</glyph>
<glyph name="nine" format="1">
  <advance width="578"/>
  <unicode hex="0039"/>
  <outline>
    <contour>
      <point x="536" y="468" type="curve" smooth="yes"/>
      <point x="536" y="304"/>
      <point x="450" y="134"/>
      <point x="303" y="0" type="curve"/>
      <point x="166" y="0" type="line"/>
      <point x="308" y="110"/>
      <point x="399" y="240"/>
      <point x="424" y="343" type="curve"/>
      <point x="417" y="343" type="line"/>
      <point x="374" y="294"/>
      <point x="323" y="263"/>
      <point x="243" y="263" type="curve" smooth="yes"/>
      <point x="123" y="263"/>
      <point x="29" y="344"/>
      <point x="29" y="489" type="curve" smooth="yes"/>
      <point x="29" y="638"/>
      <point x="135" y="732"/>
      <point x="286" y="732" type="curve" smooth="yes"/>
      <point x="437" y="732"/>
      <point x="536" y="645"/>
    </contour>
    <contour>
      <point x="426" y="496" type="curve" smooth="yes"/>
      <point x="426" y="589"/>
      <point x="369" y="654"/>
      <point x="283" y="654" type="curve" smooth="yes"/>
      <point x="197" y="654"/>
      <point x="139" y="590"/>
      <point x="139" y="495" type="curve" smooth="yes"/>
      <point x="139" y="402"/>
      <point x="190" y="340"/>
      <point x="278" y="340" type="curve" smooth="yes"/>
      <point x="368" y="340"/>
      <point x="426" y="409"/>
    </contour>
  </outline>
</glyph>
<glyph name="colon" format="1">
  <advance width="226"/>
  <unicode hex="003A"/>
  <outline>
    <contour>
      <point x="181" y="462" type="curve" smooth="yes"/>
      <point x="181" y="423"/>
      <point x="152" y="394"/>
      <point x="113" y="394" type="curve" smooth="yes"/>
      <point x="74" y="394"/>
      <point x="46" y="423"/>
      <point x="46" y="462" type="curve" smooth="yes"/>
      <point x="46" y="501"/>
      <point x="74" y="530"/>
      <point x="113" y="530" type="curve" smooth="yes"/>
      <point x="152" y="530"/>
      <point x="181" y="501"/>
    </contour>
    <contour>
      <point x="181" y="61" type="curve" smooth="yes"/>
      <point x="181" y="22"/>
      <point x="152" y="-7"/>
      <point x="113" y="-7" type="curve" smooth="yes"/>
      <point x="74" y="-7"/>
      <point x="46" y="22"/>
      <point x="46" y="61" type="curve" smooth="yes"/>
      <point x="46" y="99"/>
      <point x="74" y="128"/>
      <point x="113" y="128" type="curve" smooth="yes"/>
      <point x="152" y="128"/>
      <point x="181" y="99"/>
    </contour>
  </outline>
</glyph>
<glyph name="equal" format="1">
  <advance width="600"/>
  <unicode hex="003D"/>
  <outline>
    <contour>
      <point x="543" y="432" type="line"/>
      <point x="57" y="432" type="line"/>
      <point x="57" y="526" type="line"/>
      <point x="543" y="526" type="line"/>
    </contour>
    <contour>
      <point x="543" y="184" type="line"/>
      <point x="57" y="184" type="line"/>
      <point x="57" y="278" type="line"/>
      <point x="543" y="278" type="line"/>
    </contour>
  </outline>
</glyph>
<glyph name="greater" format="1">
  <advance width="600"/>
  <unicode hex="003E"/>
  <outline>
    <contour>
      <point x="555" y="310" type="line"/>
      <point x="52" y="89" type="line"/>
      <point x="52" y="186" type="line"/>
      <point x="451" y="355" type="line"/>
      <point x="52" y="524" type="line"/>
      <point x="52" y="621" type="line"/>
      <point x="555" y="400" type="line"/>
    </contour>
  </outline>
</glyph>
<glyph name="question" format="1">
  <advance width="469"/>
  <unicode hex="003F"/>
  <outline>
    <contour>
      <point x="431" y="560" type="curve" smooth="yes"/>
      <point x="431" y="477"/>
      <point x="399" y="439"/>
      <point x="324" y="376" type="curve" smooth="yes"/>
      <point x="268" y="329"/>
      <point x="249" y="300"/>
      <point x="246" y="221" type="curve"/>
      <point x="178" y="221" type="line"/>
      <point x="171" y="330"/>
      <point x="188" y="368"/>
      <point x="253" y="428" type="curve" smooth="yes"/>
      <point x="302" y="472"/>
      <point x="322" y="508"/>
      <point x="322" y="555" type="curve" smooth="yes"/>
      <point x="322" y="609"/>
      <point x="289" y="647"/>
      <point x="231" y="647" type="curve" smooth="yes"/>
      <point x="170" y="647"/>
      <point x="135" y="616"/>
      <point x="100" y="537" type="curve"/>
      <point x="17" y="575" type="line"/>
      <point x="58" y="675"/>
      <point x="120" y="732"/>
      <point x="236" y="732" type="curve" smooth="yes"/>
      <point x="359" y="732"/>
      <point x="431" y="659"/>
    </contour>
    <contour>
      <point x="277" y="58" type="curve" smooth="yes"/>
      <point x="277" y="21"/>
      <point x="249" y="-7"/>
      <point x="211" y="-7" type="curve" smooth="yes"/>
      <point x="174" y="-7"/>
      <point x="146" y="21"/>
      <point x="146" y="58" type="curve" smooth="yes"/>
      <point x="146" y="96"/>
      <point x="174" y="124"/>
      <point x="211" y="124" type="curve" smooth="yes"/>
      <point x="249" y="124"/>
      <point x="277" y="96"/>
    </contour>
  </outline>
</glyph>
<glyph name="A" format="1">
  <advance width="676"/>
  <unicode hex="0041"/>
  <outline>
    <contour>
      <point x="654" y="0" type="line"/>
      <point x="537" y="0" type="line"/>
      <point x="482" y="178" type="line"/>
      <point x="191" y="178" type="line"/>
      <point x="135" y="0" type="line"/>
      <point x="22" y="0" type="line"/>
      <point x="263" y="723" type="line"/>
      <point x="414" y="723" type="line"/>
    </contour>
    <contour>
      <point x="462" y="255" type="line"/>
      <point x="340" y="637" type="line"/>
      <point x="333" y="637" type="line"/>
      <point x="211" y="255" type="line"/>
    </contour>
  </outline>
</glyph>
<glyph name="H" format="1">
  <advance width="637"/>
  <unicode hex="0048"/>
  <outline>
    <contour>
      <point x="566" y="0" type="line"/>
      <point x="452" y="0" type="line"/>
      <point x="452" y="326" type="line"/>
      <point x="186" y="326" type="line"/>
      <point x="186" y="0" type="line"/>
      <point x="72" y="0" type="line"/>
      <point x="72" y="720" type="line"/>
      <point x="186" y="720" type="line"/>
      <point x="186" y="423" type="line"/>
      <point x="452" y="423" type="line"/>
      <point x="452" y="720" type="line"/>
      <point x="566" y="720" type="line"/>
    </contour>
  </outline>
</glyph>
<glyph name="J" format="1">
  <advance width="512"/>
  <unicode hex="004A"/>
  <outline>
    <contour>
      <point x="447" y="214" type="line" smooth="yes"/>
      <point x="447" y="68"/>
      <point x="371" y="-12"/>
      <point x="232" y="-12" type="curve" smooth="yes"/>
      <point x="99" y="-12"/>
      <point x="26" y="52"/>
      <point x="20" y="198" type="curve"/>
      <point x="127" y="222" type="line"/>
      <point x="129" y="113"/>
      <point x="172" y="79"/>
      <point x="234" y="79" type="curve" smooth="yes"/>
      <point x="294" y="79"/>
      <point x="332" y="118"/>
      <point x="332" y="210" type="curve" smooth="yes"/>
      <point x="332" y="720" type="line"/>
      <point x="447" y="720" type="line"/>
    </contour>
  </outline>
</glyph>
<glyph name="L" format="1">
  <advance width="519"/>
  <unicode hex="004C"/>
  <outline>
    <contour>
      <point x="501" y="0" type="line"/>
      <point x="72" y="0" type="line"/>
      <point x="72" y="720" type="line"/>
      <point x="186" y="720" type="line"/>
      <point x="186" y="95" type="line"/>
      <point x="501" y="95" type="line"/>
    </contour>
  </outline>
</glyph>
<glyph name="M" format="1">
  <advance width="857"/>
  <unicode hex="004D"/>
  <outline>
    <contour>
      <point x="786" y="0" type="line"/>
      <point x="679" y="0" type="line"/>
      <point x="679" y="601" type="line"/>
      <point x="670" y="601" type="line"/>
      <point x="486" y="0" type="line"/>
      <point x="368" y="0" type="line"/>
      <point x="183" y="601" type="line"/>
      <point x="175" y="601" type="line"/>
      <point x="175" y="0" type="line"/>
      <point x="72" y="0" type="line"/>
      <point x="72" y="720" type="line"/>
      <point x="253" y="720" type="line"/>
      <point x="427" y="146" type="line"/>
      <point x="434" y="146" type="line"/>
      <point x="608" y="720" type="line"/>
      <point x="786" y="720" type="line"/>
    </contour>
  </outline>
</glyph>
<glyph name="N" format="1">
  <advance width="649"/>
  <unicode hex="004E"/>
  <outline>
    <contour>
      <point x="578" y="0" type="line"/>
      <point x="461" y="0" type="line"/>
      <point x="184" y="551" type="line"/>
      <point x="177" y="551" type="line"/>
      <point x="177" y="0" type="line"/>
      <point x="72" y="0" type="line"/>
      <point x="72" y="720" type="line"/>
      <point x="199" y="720" type="line"/>
      <point x="465" y="189" type="line"/>
      <point x="472" y="189" type="line"/>
      <point x="472" y="720" type="line"/>
      <point x="578" y="720" type="line"/>
    </contour>
  </outline>
</glyph>
<glyph name="O" format="1">
  <advance width="631"/>
  <unicode hex="004F"/>
  <outline>
    <contour>
      <point x="585" y="346" type="line" smooth="yes"/>
      <point x="585" y="122"/>
      <point x="482" y="-12"/>
      <point x="315" y="-12" type="curve" smooth="yes"/>
      <point x="149" y="-12"/>
      <point x="46" y="121"/>
      <point x="46" y="344" type="curve" smooth="yes"/>
      <point x="46" y="374" type="line" smooth="yes"/>
      <point x="46" y="598"/>
      <point x="149" y="732"/>
      <point x="315" y="732" type="curve" smooth="yes"/>
      <point x="482" y="732"/>
      <point x="585" y="599"/>
      <point x="585" y="376" type="curve" smooth="yes"/>
    </contour>
    <contour>
      <point x="467" y="333" type="curve" smooth="yes"/>
      <point x="467" y="386" type="line" smooth="yes"/>
      <point x="467" y="541"/>
      <point x="418" y="644"/>
      <point x="315" y="644" type="curve" smooth="yes"/>
      <point x="213" y="644"/>
      <point x="164" y="542"/>
      <point x="164" y="387" type="curve" smooth="yes"/>
      <point x="164" y="334" type="line" smooth="yes"/>
      <point x="164" y="178"/>
      <point x="213" y="76"/>
      <point x="315" y="76" type="curve" smooth="yes"/>
      <point x="418" y="76"/>
      <point x="467" y="177"/>
    </contour>
  </outline>
</glyph>
<glyph name="P" format="1">
  <advance width="581"/>
  <unicode hex="0050"/>
  <outline>
    <contour>
      <point x="550" y="510" type="curve" smooth="yes"/>
      <point x="550" y="367"/>
      <point x="458" y="291"/>
      <point x="295" y="291" type="curve" smooth="yes"/>
      <point x="186" y="291" type="line"/>
      <point x="186" y="0" type="line"/>
      <point x="72" y="0" type="line"/>
      <point x="72" y="720" type="line"/>
      <point x="302" y="720" type="line" smooth="yes"/>
      <point x="456" y="720"/>
      <point x="550" y="649"/>
    </contour>
    <contour>
      <point x="436" y="508" type="curve" smooth="yes"/>
      <point x="436" y="592"/>
      <point x="386" y="637"/>
      <point x="290" y="637" type="curve" smooth="yes"/>
      <point x="182" y="637" type="line"/>
      <point x="182" y="376" type="line"/>
      <point x="293" y="376" type="line" smooth="yes"/>
      <point x="385" y="376"/>
      <point x="436" y="421"/>
    </contour>
  </outline>
</glyph>
<glyph name="Q" format="1">
  <advance width="631"/>
  <unicode hex="0051"/>
  <outline>
    <contour>
      <point x="622" y="-106" type="line"/>
      <point x="609" y="-110"/>
      <point x="595" y="-111"/>
      <point x="579" y="-111" type="curve" smooth="yes"/>
      <point x="523" y="-111"/>
      <point x="491" y="-97"/>
      <point x="457" y="-45" type="curve" smooth="yes"/>
      <point x="421" y="10" type="line"/>
      <point x="397" y="-3"/>
      <point x="357" y="-12"/>
      <point x="315" y="-12" type="curve" smooth="yes"/>
      <point x="149" y="-12"/>
      <point x="46" y="121"/>
      <point x="46" y="344" type="curve" smooth="yes"/>
      <point x="46" y="374" type="line" smooth="yes"/>
      <point x="46" y="598"/>
      <point x="149" y="732"/>
      <point x="315" y="732" type="curve" smooth="yes"/>
      <point x="482" y="732"/>
      <point x="585" y="599"/>
      <point x="585" y="376" type="curve" smooth="yes"/>
      <point x="585" y="346" type="line" smooth="yes"/>
      <point x="585" y="188"/>
      <point x="538" y="101"/>
      <point x="479" y="46" type="curve"/>
      <point x="514" y="0" type="line" smooth="yes"/>
      <point x="534" y="-26"/>
      <point x="552" y="-38"/>
      <point x="583" y="-38" type="curve" smooth="yes"/>
      <point x="595" y="-38"/>
      <point x="609" y="-36"/>
      <point x="622" y="-33" type="curve"/>
    </contour>
    <contour>
      <point x="467" y="324" type="curve" smooth="yes"/>
      <point x="467" y="386" type="line" smooth="yes"/>
      <point x="467" y="541"/>
      <point x="418" y="644"/>
      <point x="315" y="644" type="curve" smooth="yes"/>
      <point x="213" y="644"/>
      <point x="164" y="542"/>
      <point x="164" y="387" type="curve" smooth="yes"/>
      <point x="164" y="326" type="line" smooth="yes"/>
      <point x="164" y="170"/>
      <point x="213" y="67"/>
      <point x="315" y="67" type="curve" smooth="yes"/>
      <point x="344" y="67"/>
      <point x="364" y="73"/>
      <point x="378" y="82" type="curve"/>
      <point x="294" y="207" type="line"/>
      <point x="336" y="234" type="line"/>
      <point x="420" y="122" type="line"/>
      <point x="452" y="163"/>
      <point x="467" y="238"/>
    </contour>
  </outline>
</glyph>
<glyph name="S" format="1">
  <advance width="581"/>
  <unicode hex="0053"/>
  <outline>
    <contour>
      <point x="541" y="194" type="curve" smooth="yes"/>
      <point x="541" y="59"/>
      <point x="437" y="-11"/>
      <point x="296" y="-11" type="curve" smooth="yes"/>
      <point x="166" y="-11"/>
      <point x="83" y="39"/>
      <point x="33" y="139" type="curve"/>
      <point x="109" y="200" type="line"/>
      <point x="150" y="116"/>
      <point x="215" y="75"/>
      <point x="299" y="75" type="curve" smooth="yes"/>
      <point x="380" y="75"/>
      <point x="436" y="114"/>
      <point x="436" y="182" type="curve" smooth="yes"/>
      <point x="436" y="246"/>
      <point x="404" y="281"/>
      <point x="271" y="320" type="curve" smooth="yes"/>
      <point x="109" y="368"/>
      <point x="55" y="427"/>
      <point x="55" y="538" type="curve" smooth="yes"/>
      <point x="55" y="650"/>
      <point x="142" y="731"/>
      <point x="281" y="731" type="curve" smooth="yes"/>
      <point x="391" y="731"/>
      <point x="467" y="689"/>
      <point x="516" y="604" type="curve"/>
      <point x="440" y="542" type="line"/>
      <point x="401" y="607"/>
      <point x="353" y="645"/>
      <point x="279" y="645" type="curve" smooth="yes"/>
      <point x="200" y="645"/>
      <point x="160" y="601"/>
      <point x="160" y="550" type="curve" smooth="yes"/>
      <point x="160" y="490"/>
      <point x="193" y="457"/>
      <point x="320" y="418" type="curve" smooth="yes"/>
      <point x="490" y="367"/>
      <point x="541" y="305"/>
    </contour>
  </outline>
</glyph>
<glyph name="T" format="1">
  <advance width="576"/>
  <unicode hex="0054"/>
  <outline>
    <contour>
      <point x="557" y="625" type="line"/>
      <point x="345" y="625" type="line"/>
      <point x="345" y="0" type="line"/>
      <point x="231" y="0" type="line"/>
      <point x="231" y="625" type="line"/>
      <point x="19" y="625" type="line"/>
      <point x="19" y="720" type="line"/>
      <point x="557" y="720" type="line"/>
    </contour>
  </outline>
</glyph>
<glyph name="W" format="1">
  <advance width="973"/>
  <unicode hex="0057"/>
  <outline>
    <contour>
      <point x="942" y="720" type="line"/>
      <point x="756" y="-5" type="line"/>
      <point x="631" y="-5" type="line"/>
      <point x="487" y="578" type="line"/>
      <point x="479" y="578" type="line"/>
      <point x="336" y="-5" type="line"/>
      <point x="211" y="-5" type="line"/>
      <point x="25" y="720" type="line"/>
      <point x="144" y="720" type="line"/>
      <point x="276" y="130" type="line"/>
      <point x="282" y="130" type="line"/>
      <point x="421" y="720" type="line"/>
      <point x="549" y="720" type="line"/>
      <point x="689" y="130" type="line"/>
      <point x="695" y="130" type="line"/>
      <point x="827" y="720" type="line"/>
    </contour>
  </outline>
</glyph>
<glyph name="Y" format="1">
  <advance width="629"/>
  <unicode hex="0059"/>
  <outline>
    <contour>
      <point x="616" y="720" type="line"/>
      <point x="372" y="281" type="line"/>
      <point x="372" y="0" type="line"/>
      <point x="257" y="0" type="line"/>
      <point x="257" y="279" type="line"/>
      <point x="13" y="720" type="line"/>
      <point x="137" y="720" type="line"/>
      <point x="319" y="380" type="line"/>
      <point x="502" y="720" type="line"/>
    </contour>
  </outline>
</glyph>
<glyph name="bracketright" format="1">
  <advance width="363"/>
  <unicode hex="005D"/>
  <outline>
    <contour>
      <point x="299" y="-89" type="line"/>
      <point x="24" y="-80" type="line"/>
      <point x="24" y="-30" type="line"/>
      <point x="197" y="-37" type="line"/>
      <point x="197" y="677" type="line"/>
      <point x="24" y="670" type="line"/>
      <point x="24" y="720" type="line"/>
      <point x="299" y="729" type="line"/>
    </contour>
  </outline>
</glyph>
<glyph name="a" format="1">
  <advance width="505"/>
  <unicode hex="0061"/>
  <outline>
    <contour>
      <point x="487" y="-4" type="line"/>
      <point x="397" y="-4"/>
      <point x="348" y="29"/>
      <point x="337" y="81" type="curve"/>
      <point x="331" y="81" type="line"/>
      <point x="281" y="21"/>
      <point x="230" y="-7"/>
      <point x="169" y="-7" type="curve" smooth="yes"/>
      <point x="92" y="-7"/>
      <point x="27" y="42"/>
      <point x="27" y="132" type="curve" smooth="yes"/>
      <point x="27" y="239"/>
      <point x="128" y="306"/>
      <point x="334" y="310" type="curve"/>
      <point x="334" y="364" type="line" smooth="yes"/>
      <point x="334" y="426"/>
      <point x="306" y="455"/>
      <point x="252" y="455" type="curve" smooth="yes"/>
      <point x="203" y="455"/>
      <point x="157" y="439"/>
      <point x="94" y="404" type="curve"/>
      <point x="64" y="471" type="line"/>
      <point x="130" y="506"/>
      <point x="191" y="530"/>
      <point x="270" y="530" type="curve" smooth="yes"/>
      <point x="385" y="530"/>
      <point x="434" y="481"/>
      <point x="434" y="367" type="curve" smooth="yes"/>
      <point x="434" y="106" type="line" smooth="yes"/>
      <point x="434" y="64"/>
      <point x="448" y="44"/>
      <point x="487" y="40" type="curve"/>
    </contour>
    <contour>
      <point x="334" y="126" type="curve"/>
      <point x="334" y="264" type="line"/>
      <point x="182" y="262"/>
      <point x="126" y="209"/>
      <point x="126" y="144" type="curve" smooth="yes"/>
      <point x="126" y="90"/>
      <point x="161" y="59"/>
      <point x="211" y="59" type="curve" smooth="yes"/>
      <point x="256" y="59"/>
      <point x="298" y="81"/>
    </contour>
  </outline>
</glyph>
<glyph name="d" format="1">
  <advance width="530"/>
  <unicode hex="0064"/>
  <outline>
    <contour>
      <point x="469" y="14" type="line"/>
      <point x="362" y="-9" type="line"/>
      <point x="362" y="105" type="line"/>
      <point x="357" y="105" type="line"/>
      <point x="316" y="35"/>
      <point x="275" y="-9"/>
      <point x="205" y="-9" type="curve" smooth="yes"/>
      <point x="107" y="-9"/>
      <point x="37" y="82"/>
      <point x="37" y="254" type="curve" smooth="yes"/>
      <point x="37" y="269" type="line" smooth="yes"/>
      <point x="37" y="440"/>
      <point x="113" y="533"/>
      <point x="207" y="533" type="curve" smooth="yes"/>
      <point x="277" y="533"/>
      <point x="320" y="490"/>
      <point x="357" y="420" type="curve"/>
      <point x="362" y="420" type="line"/>
      <point x="362" y="736" type="line"/>
      <point x="469" y="759" type="line"/>
    </contour>
    <contour>
      <point x="364" y="263" type="curve" smooth="yes"/>
      <point x="364" y="378"/>
      <point x="315" y="462"/>
      <point x="248" y="462" type="curve" smooth="yes"/>
      <point x="190" y="462"/>
      <point x="143" y="402"/>
      <point x="143" y="263" type="curve" smooth="yes"/>
      <point x="143" y="118"/>
      <point x="192" y="63"/>
      <point x="249" y="63" type="curve" smooth="yes"/>
      <point x="315" y="63"/>
      <point x="364" y="146"/>
    </contour>
  </outline>
</glyph>
<glyph name="f" format="1">
  <advance width="355"/>
  <unicode hex="0066"/>
  <outline>
    <contour>
      <point x="373" y="668" type="line"/>
      <point x="349" y="679"/>
      <point x="325" y="685"/>
      <point x="289" y="685" type="curve" smooth="yes"/>
      <point x="244" y="685"/>
      <point x="220" y="661"/>
      <point x="220" y="607" type="curve" smooth="yes"/>
      <point x="220" y="521" type="line"/>
      <point x="348" y="521" type="line"/>
      <point x="348" y="447" type="line"/>
      <point x="220" y="447" type="line"/>
      <point x="220" y="0" type="line"/>
      <point x="114" y="0" type="line"/>
      <point x="114" y="447" type="line"/>
      <point x="15" y="447" type="line"/>
      <point x="15" y="521" type="line"/>
      <point x="114" y="521" type="line"/>
      <point x="114" y="604" type="line" smooth="yes"/>
      <point x="114" y="707"/>
      <point x="171" y="759"/>
      <point x="268" y="759" type="curve" smooth="yes"/>
      <point x="316" y="759"/>
      <point x="344" y="754"/>
      <point x="373" y="745" type="curve"/>
    </contour>
  </outline>
</glyph>
<glyph name="h" format="1">
  <advance width="517"/>
  <unicode hex="0068"/>
  <outline>
    <contour>
      <point x="461" y="0" type="line"/>
      <point x="354" y="0" type="line"/>
      <point x="354" y="380" type="line" smooth="yes"/>
      <point x="354" y="428"/>
      <point x="333" y="453"/>
      <point x="292" y="453" type="curve" smooth="yes"/>
      <point x="253" y="453"/>
      <point x="209" y="421"/>
      <point x="168" y="361" type="curve"/>
      <point x="168" y="0" type="line"/>
      <point x="61" y="0" type="line"/>
      <point x="61" y="736" type="line"/>
      <point x="168" y="759" type="line"/>
      <point x="168" y="408" type="line"/>
      <point x="173" y="408" type="line"/>
      <point x="229" y="485"/>
      <point x="282" y="530"/>
      <point x="351" y="530" type="curve" smooth="yes"/>
      <point x="424" y="530"/>
      <point x="461" y="483"/>
      <point x="461" y="404" type="curve" smooth="yes"/>
    </contour>
  </outline>
</glyph>
<glyph name="i" format="1">
  <advance width="242"/>
  <unicode hex="0069"/>
  <outline>
    <contour>
      <point x="182" y="624" type="line"/>
      <point x="61" y="624" type="line"/>
      <point x="61" y="724" type="line"/>
      <point x="182" y="724" type="line"/>
    </contour>
    <contour>
      <point x="175" y="0" type="line"/>
      <point x="68" y="0" type="line"/>
      <point x="68" y="524" type="line"/>
      <point x="175" y="524" type="line"/>
    </contour>
  </outline>
</glyph>
<glyph name="j" format="1">
  <advance width="242"/>
  <unicode hex="006A"/>
  <outline>
    <contour>
      <point x="182" y="624" type="line"/>
      <point x="61" y="624" type="line"/>
      <point x="61" y="724" type="line"/>
      <point x="182" y="724" type="line"/>
    </contour>
    <contour>
      <point x="175" y="-42" type="line" smooth="yes"/>
      <point x="175" y="-149"/>
      <point x="124" y="-190"/>
      <point x="33" y="-190" type="curve" smooth="yes"/>
      <point x="-2" y="-190"/>
      <point x="-22" y="-186"/>
      <point x="-46" y="-178" type="curve"/>
      <point x="-46" y="-110" type="line"/>
      <point x="-27" y="-117"/>
      <point x="-13" y="-120"/>
      <point x="8" y="-120" type="curve" smooth="yes"/>
      <point x="44" y="-120"/>
      <point x="68" y="-101"/>
      <point x="68" y="-49" type="curve" smooth="yes"/>
      <point x="68" y="524" type="line"/>
      <point x="175" y="524" type="line"/>
    </contour>
  </outline>
</glyph>
<glyph name="k" format="1">
  <advance width="500"/>
  <unicode hex="006B"/>
  <outline>
    <contour>
      <point x="498" y="0" type="line"/>
      <point x="379" y="0" type="line"/>
      <point x="184" y="263" type="line"/>
      <point x="184" y="266" type="line"/>
      <point x="374" y="524" type="line"/>
      <point x="489" y="524" type="line"/>
      <point x="293" y="267" type="line"/>
    </contour>
    <contour>
      <point x="168" y="0" type="line"/>
      <point x="61" y="0" type="line"/>
      <point x="61" y="736" type="line"/>
      <point x="168" y="759" type="line"/>
    </contour>
  </outline>
</glyph>
<glyph name="l" format="1">
  <advance width="242"/>
  <unicode hex="006C"/>
  <outline>
    <contour>
      <point x="175" y="0" type="line"/>
      <point x="68" y="0" type="line"/>
      <point x="68" y="736" type="line"/>
      <point x="175" y="759" type="line"/>
    </contour>
  </outline>
</glyph>
<glyph name="m" format="1">
  <advance width="801"/>
  <unicode hex="006D"/>
  <outline>
    <contour>
      <point x="746" y="0" type="line"/>
      <point x="639" y="0" type="line"/>
      <point x="639" y="380" type="line" smooth="yes"/>
      <point x="639" y="428"/>
      <point x="619" y="453"/>
      <point x="578" y="453" type="curve" smooth="yes"/>
      <point x="539" y="453"/>
      <point x="497" y="421"/>
      <point x="457" y="361" type="curve"/>
      <point x="457" y="0" type="line"/>
      <point x="350" y="0" type="line"/>
      <point x="350" y="380" type="line" smooth="yes"/>
      <point x="350" y="428"/>
      <point x="330" y="453"/>
      <point x="289" y="453" type="curve" smooth="yes"/>
      <point x="250" y="453"/>
      <point x="208" y="421"/>
      <point x="168" y="361" type="curve"/>
      <point x="168" y="0" type="line"/>
      <point x="61" y="0" type="line"/>
      <point x="61" y="510" type="line"/>
      <point x="168" y="533" type="line"/>
      <point x="168" y="408" type="line"/>
      <point x="173" y="408" type="line"/>
      <point x="229" y="485"/>
      <point x="280" y="530"/>
      <point x="348" y="530" type="curve" smooth="yes"/>
      <point x="416" y="530"/>
      <point x="456" y="488"/>
      <point x="456" y="421" type="curve" smooth="yes"/>
      <point x="456" y="408" type="line"/>
      <point x="462" y="408" type="line"/>
      <point x="518" y="485"/>
      <point x="568" y="530"/>
      <point x="637" y="530" type="curve" smooth="yes"/>
      <point x="710" y="530"/>
      <point x="746" y="483"/>
      <point x="746" y="404" type="curve" smooth="yes"/>
    </contour>
  </outline>
</glyph>
<glyph name="o" format="1">
  <advance width="510"/>
  <unicode hex="006F"/>
  <outline>
    <contour>
      <point x="473" y="256" type="line" smooth="yes"/>
      <point x="473" y="96"/>
      <point x="390" y="-10"/>
      <point x="255" y="-10" type="curve" smooth="yes"/>
      <point x="119" y="-10"/>
      <point x="36" y="95"/>
      <point x="36" y="254" type="curve" smooth="yes"/>
      <point x="36" y="269" type="line" smooth="yes"/>
      <point x="36" y="428"/>
      <point x="119" y="534"/>
      <point x="255" y="534" type="curve" smooth="yes"/>
      <point x="390" y="534"/>
      <point x="473" y="430"/>
      <point x="473" y="270" type="curve" smooth="yes"/>
    </contour>
    <contour>
      <point x="367" y="254" type="curve" smooth="yes"/>
      <point x="367" y="269" type="line" smooth="yes"/>
      <point x="367" y="396"/>
      <point x="328" y="466"/>
      <point x="255" y="466" type="curve" smooth="yes"/>
      <point x="182" y="466"/>
      <point x="143" y="396"/>
      <point x="143" y="270" type="curve" smooth="yes"/>
      <point x="143" y="255" type="line" smooth="yes"/>
      <point x="143" y="129"/>
      <point x="182" y="58"/>
      <point x="255" y="58" type="curve" smooth="yes"/>
      <point x="328" y="58"/>
      <point x="367" y="128"/>
    </contour>
  </outline>
</glyph>
<glyph name="r" format="1">
  <advance width="393"/>
  <unicode hex="0072"/>
  <outline>
    <contour>
      <point x="378" y="420" type="line"/>
      <point x="291" y="405"/>
      <point x="219" y="348"/>
      <point x="168" y="279" type="curve"/>
      <point x="168" y="0" type="line"/>
      <point x="61" y="0" type="line"/>
      <point x="61" y="510" type="line"/>
      <point x="168" y="533" type="line"/>
      <point x="168" y="330" type="line"/>
      <point x="173" y="330" type="line"/>
      <point x="241" y="455"/>
      <point x="307" y="521"/>
      <point x="378" y="533" type="curve"/>
    </contour>
  </outline>
</glyph>
<glyph name="s" format="1">
  <advance width="429"/>
  <unicode hex="0073"/>
  <outline>
    <contour>
      <point x="404" y="144" type="curve" smooth="yes"/>
      <point x="404" y="43"/>
      <point x="323" y="-9"/>
      <point x="217" y="-9" type="curve" smooth="yes"/>
      <point x="129" y="-9"/>
      <point x="67" y="22"/>
      <point x="22" y="64" type="curve"/>
      <point x="72" y="122" type="line"/>
      <point x="113" y="82"/>
      <point x="165" y="60"/>
      <point x="219" y="60" type="curve" smooth="yes"/>
      <point x="271" y="60"/>
      <point x="310" y="85"/>
      <point x="310" y="131" type="curve" smooth="yes"/>
      <point x="310" y="175"/>
      <point x="287" y="197"/>
      <point x="197" y="226" type="curve" smooth="yes"/>
      <point x="84" y="263"/>
      <point x="40" y="311"/>
      <point x="40" y="387" type="curve" smooth="yes"/>
      <point x="40" y="474"/>
      <point x="111" y="533"/>
      <point x="212" y="533" type="curve" smooth="yes"/>
      <point x="285" y="533"/>
      <point x="337" y="512"/>
      <point x="386" y="470" type="curve"/>
      <point x="335" y="410" type="line"/>
      <point x="292" y="448"/>
      <point x="256" y="465"/>
      <point x="210" y="465" type="curve" smooth="yes"/>
      <point x="159" y="465"/>
      <point x="133" y="435"/>
      <point x="133" y="399" type="curve" smooth="yes"/>
      <point x="133" y="360"/>
      <point x="160" y="337"/>
      <point x="240" y="311" type="curve" smooth="yes"/>
      <point x="361" y="273"/>
      <point x="404" y="225"/>
    </contour>
  </outline>
</glyph>
<glyph name="t" format="1">
  <advance width="387"/>
  <unicode hex="0074"/>
  <outline>
    <contour>
      <point x="367" y="25" type="line"/>
      <point x="321" y="1"/>
      <point x="280" y="-10"/>
      <point x="232" y="-10" type="curve" smooth="yes"/>
      <point x="154" y="-10"/>
      <point x="108" y="25"/>
      <point x="108" y="109" type="curve" smooth="yes"/>
      <point x="108" y="447" type="line"/>
      <point x="15" y="447" type="line"/>
      <point x="15" y="521" type="line"/>
      <point x="108" y="521" type="line"/>
      <point x="108" y="689" type="line"/>
      <point x="214" y="730" type="line"/>
      <point x="214" y="521" type="line"/>
      <point x="346" y="521" type="line"/>
      <point x="346" y="447" type="line"/>
      <point x="214" y="447" type="line"/>
      <point x="214" y="131" type="line" smooth="yes"/>
      <point x="214" y="92"/>
      <point x="236" y="73"/>
      <point x="267" y="73" type="curve" smooth="yes"/>
      <point x="294" y="73"/>
      <point x="323" y="83"/>
      <point x="367" y="107" type="curve"/>
    </contour>
  </outline>
</glyph>
<glyph name="v" format="1">
  <advance width="497"/>
  <unicode hex="0076"/>
  <outline>
    <contour>
      <point x="478" y="524" type="line"/>
      <point x="306" y="-5" type="line"/>
      <point x="191" y="-5" type="line"/>
      <point x="20" y="524" type="line"/>
      <point x="130" y="524" type="line"/>
      <point x="251" y="105" type="line"/>
      <point x="372" y="524" type="line"/>
    </contour>
  </outline>
</glyph>
<glyph name="y" format="1">
  <advance width="497"/>
  <unicode hex="0079"/>
  <outline>
    <contour>
      <point x="478" y="524" type="line"/>
      <point x="290" y="-57" type="line" smooth="yes"/>
      <point x="257" y="-160"/>
      <point x="208" y="-192"/>
      <point x="123" y="-192" type="curve" smooth="yes"/>
      <point x="81" y="-192"/>
      <point x="54" y="-185"/>
      <point x="26" y="-173" type="curve"/>
      <point x="26" y="-98" type="line"/>
      <point x="51" y="-98" type="line"/>
      <point x="65" y="-121"/>
      <point x="81" y="-133"/>
      <point x="113" y="-133" type="curve" smooth="yes"/>
      <point x="149" y="-133"/>
      <point x="173" y="-111"/>
      <point x="188" y="-68" type="curve" smooth="yes"/>
      <point x="202" y="-28" type="line"/>
      <point x="20" y="524" type="line"/>
      <point x="130" y="524" type="line"/>
      <point x="251" y="101" type="line"/>
      <point x="372" y="524" type="line"/>
    </contour>
  </outline>
</glyph>
<glyph name="z" format="1">
  <advance width="438"/>
  <unicode hex="007A"/>
  <outline>
    <contour>
      <point x="410" y="0" type="line"/>
      <point x="28" y="0" type="line"/>
      <point x="28" y="65" type="line"/>
      <point x="288" y="448" type="line"/>
      <point x="43" y="448" type="line"/>
      <point x="43" y="521" type="line"/>
      <point x="410" y="521" type="line"/>
      <point x="410" y="457" type="line"/>
      <point x="150" y="74" type="line"/>
      <point x="410" y="74" type="line"/>
    </contour>
  </outline>
</glyph>
<glyph name="cent" format="1">
  <advance width="480"/>
  <unicode hex="00A2"/>
  <outline>
    <contour>
      <point x="447" y="619" type="line"/>
      <point x="210" y="71" type="line"/>
      <point x="222" y="63"/>
      <point x="237" y="60"/>
      <point x="253" y="60" type="curve" smooth="yes"/>
      <point x="300" y="60"/>
      <point x="334" y="90"/>
      <point x="356" y="160" type="curve"/>
      <point x="442" y="138" type="line"/>
      <point x="413" y="41"/>
      <point x="348" y="-10"/>
      <point x="249" y="-10" type="curve" smooth="yes"/>
      <point x="223" y="-10"/>
      <point x="198" y="-6"/>
      <point x="176" y="3" type="curve"/>
      <point x="134" y="-95" type="line"/>
      <point x="69" y="-95" type="line"/>
      <point x="127" y="29" type="line"/>
      <point x="69" y="72"/>
      <point x="36" y="152"/>
      <point x="36" y="254" type="curve" smooth="yes"/>
      <point x="36" y="269" type="line" smooth="yes"/>
      <point x="36" y="428"/>
      <point x="120" y="534"/>
      <point x="253" y="534" type="curve" smooth="yes"/>
      <point x="287" y="534"/>
      <point x="316" y="528"/>
      <point x="340" y="516" type="curve"/>
      <point x="383" y="619" type="line"/>
    </contour>
    <contour>
      <point x="310" y="449" type="line"/>
      <point x="294" y="459"/>
      <point x="276" y="464"/>
      <point x="253" y="464" type="curve" smooth="yes"/>
      <point x="181" y="464"/>
      <point x="137" y="394"/>
      <point x="137" y="266" type="curve" smooth="yes"/>
      <point x="137" y="259" type="line" smooth="yes"/>
      <point x="137" y="197"/>
      <point x="152" y="146"/>
      <point x="178" y="114" type="curve"/>
    </contour>
  </outline>
</glyph>
<glyph name="sterling" format="1">
  <advance width="589"/>
  <unicode hex="00A3"/>
  <outline>
    <contour>
      <point x="567" y="175" type="line"/>
      <point x="541" y="50"/>
      <point x="495" y="-6"/>
      <point x="391" y="-6" type="curve" smooth="yes"/>
      <point x="324" y="-6"/>
      <point x="271" y="19"/>
      <point x="208" y="61" type="curve"/>
      <point x="171" y="28"/>
      <point x="119" y="5"/>
      <point x="51" y="-6" type="curve"/>
      <point x="51" y="75" type="line"/>
      <point x="124" y="92"/>
      <point x="170" y="130"/>
      <point x="170" y="220" type="curve" smooth="yes"/>
      <point x="170" y="259"/>
      <point x="163" y="294"/>
      <point x="154" y="328" type="curve"/>
      <point x="36" y="328" type="line"/>
      <point x="36" y="387" type="line"/>
      <point x="134" y="387" type="line"/>
      <point x="119" y="435"/>
      <point x="104" y="481"/>
      <point x="104" y="532" type="curve" smooth="yes"/>
      <point x="104" y="646"/>
      <point x="178" y="732"/>
      <point x="320" y="732" type="curve" smooth="yes"/>
      <point x="438" y="732"/>
      <point x="497" y="685"/>
      <point x="539" y="608" type="curve"/>
      <point x="448" y="560" type="line"/>
      <point x="414" y="619"/>
      <point x="377" y="649"/>
      <point x="318" y="649" type="curve" smooth="yes"/>
      <point x="242" y="649"/>
      <point x="207" y="601"/>
      <point x="207" y="532" type="curve" smooth="yes"/>
      <point x="207" y="485"/>
      <point x="223" y="439"/>
      <point x="240" y="387" type="curve"/>
      <point x="427" y="387" type="line"/>
      <point x="427" y="328" type="line"/>
      <point x="257" y="328" type="line"/>
      <point x="265" y="295"/>
      <point x="271" y="260"/>
      <point x="271" y="220" type="curve" smooth="yes"/>
      <point x="271" y="186"/>
      <point x="265" y="156"/>
      <point x="254" y="130" type="curve"/>
      <point x="298" y="98"/>
      <point x="341" y="82"/>
      <point x="379" y="82" type="curve" smooth="yes"/>
      <point x="442" y="82"/>
      <point x="473" y="111"/>
      <point x="494" y="200" type="curve"/>
    </contour>
  </outline>
</glyph>
<glyph name="yen" format="1">
  <advance width="625"/>
  <unicode hex="00A5"/>
  <outline>
    <contour>
      <point x="608" y="720" type="line"/>
      <point x="427" y="393" type="line"/>
      <point x="561" y="393" type="line"/>
      <point x="561" y="334" type="line"/>
      <point x="395" y="334" type="line"/>
      <point x="366" y="281" type="line"/>
      <point x="366" y="206" type="line"/>
      <point x="561" y="206" type="line"/>
      <point x="561" y="147" type="line"/>
      <point x="366" y="147" type="line"/>
      <point x="366" y="0" type="line"/>
      <point x="259" y="0" type="line"/>
      <point x="259" y="147" type="line"/>
      <point x="64" y="147" type="line"/>
      <point x="64" y="206" type="line"/>
      <point x="259" y="206" type="line"/>
      <point x="259" y="279" type="line"/>
      <point x="229" y="334" type="line"/>
      <point x="64" y="334" type="line"/>
      <point x="64" y="393" type="line"/>
      <point x="197" y="393" type="line"/>
      <point x="17" y="720" type="line"/>
      <point x="138" y="720" type="line"/>
      <point x="317" y="368" type="line"/>
      <point x="496" y="720" type="line"/>
    </contour>
  </outline>
</glyph>
<glyph name="section" format="1">
  <advance width="588"/>
  <unicode hex="00A7"/>
  <outline>
    <contour>
      <point x="556" y="357" type="curve" smooth="yes"/>
      <point x="556" y="293"/>
      <point x="496" y="243"/>
      <point x="391" y="235" type="curve"/>
      <point x="391" y="229" type="line"/>
      <point x="461" y="206"/>
      <point x="494" y="167"/>
      <point x="494" y="112" type="curve" smooth="yes"/>
      <point x="494" y="38"/>
      <point x="424" y="-12"/>
      <point x="306" y="-12" type="curve" smooth="yes"/>
      <point x="219" y="-12"/>
      <point x="159" y="4"/>
      <point x="88" y="43" type="curve"/>
      <point x="128" y="109" type="line"/>
      <point x="190" y="74"/>
      <point x="247" y="58"/>
      <point x="311" y="58" type="curve" smooth="yes"/>
      <point x="369" y="58"/>
      <point x="405" y="80"/>
      <point x="405" y="112" type="curve" smooth="yes"/>
      <point x="405" y="149"/>
      <point x="387" y="173"/>
      <point x="242" y="211" type="curve" smooth="yes"/>
      <point x="88" y="252"/>
      <point x="33" y="297"/>
      <point x="33" y="363" type="curve" smooth="yes"/>
      <point x="33" y="427"/>
      <point x="93" y="477"/>
      <point x="198" y="485" type="curve"/>
      <point x="198" y="491" type="line"/>
      <point x="127" y="514"/>
      <point x="95" y="553"/>
      <point x="95" y="608" type="curve" smooth="yes"/>
      <point x="95" y="682"/>
      <point x="165" y="732"/>
      <point x="282" y="732" type="curve" smooth="yes"/>
      <point x="369" y="732"/>
      <point x="429" y="716"/>
      <point x="501" y="677" type="curve"/>
      <point x="461" y="611" type="line"/>
      <point x="399" y="646"/>
      <point x="341" y="662"/>
      <point x="277" y="662" type="curve" smooth="yes"/>
      <point x="219" y="662"/>
      <point x="184" y="640"/>
      <point x="184" y="608" type="curve" smooth="yes"/>
      <point x="184" y="571"/>
      <point x="202" y="547"/>
      <point x="347" y="509" type="curve" smooth="yes"/>
      <point x="501" y="468"/>
      <point x="556" y="423"/>
    </contour>
    <contour>
      <point x="474" y="341" type="curve" smooth="yes"/>
      <point x="474" y="381"/>
      <point x="439" y="412"/>
      <point x="345" y="439" type="curve" smooth="yes"/>
      <point x="308" y="450"/>
      <point x="274" y="454"/>
      <point x="234" y="454" type="curve" smooth="yes"/>
      <point x="164" y="454"/>
      <point x="115" y="427"/>
      <point x="115" y="379" type="curve" smooth="yes"/>
      <point x="115" y="339"/>
      <point x="150" y="308"/>
      <point x="244" y="281" type="curve" smooth="yes"/>
      <point x="281" y="270"/>
      <point x="315" y="266"/>
      <point x="355" y="266" type="curve" smooth="yes"/>
      <point x="424" y="266"/>
      <point x="474" y="293"/>
    </contour>
  </outline>
</glyph>
<glyph name="copyright" format="1">
  <advance width="828"/>
  <unicode hex="00A9"/>
  <outline>
    <contour>
      <point x="786" y="360" type="curve" smooth="yes"/>
      <point x="786" y="149"/>
      <point x="625" y="-12"/>
      <point x="413" y="-12" type="curve" smooth="yes"/>
      <point x="202" y="-12"/>
      <point x="42" y="148"/>
      <point x="42" y="360" type="curve" smooth="yes"/>
      <point x="42" y="571"/>
      <point x="203" y="732"/>
      <point x="414" y="732" type="curve" smooth="yes"/>
      <point x="626" y="732"/>
      <point x="786" y="572"/>
    </contour>
    <contour>
      <point x="746" y="360" type="curve" smooth="yes"/>
      <point x="746" y="552"/>
      <point x="606" y="697"/>
      <point x="413" y="697" type="curve" smooth="yes"/>
      <point x="221" y="697"/>
      <point x="82" y="553"/>
      <point x="82" y="360" type="curve" smooth="yes"/>
      <point x="82" y="168"/>
      <point x="222" y="23"/>
      <point x="414" y="23" type="curve" smooth="yes"/>
      <point x="607" y="23"/>
      <point x="746" y="167"/>
    </contour>
    <contour>
      <point x="560" y="288" type="line"/>
      <point x="543" y="203"/>
      <point x="496" y="152"/>
      <point x="412" y="152" type="curve" smooth="yes"/>
      <point x="317" y="152"/>
      <point x="254" y="227"/>
      <point x="254" y="356" type="curve" smooth="yes"/>
      <point x="254" y="374" type="line" smooth="yes"/>
      <point x="254" y="502"/>
      <point x="316" y="577"/>
      <point x="413" y="577" type="curve" smooth="yes"/>
      <point x="499" y="577"/>
      <point x="542" y="527"/>
      <point x="558" y="447" type="curve"/>
      <point x="486" y="428" type="line"/>
      <point x="473" y="489"/>
      <point x="453" y="517"/>
      <point x="413" y="517" type="curve" smooth="yes"/>
      <point x="357" y="517"/>
      <point x="333" y="461"/>
      <point x="333" y="381" type="curve" smooth="yes"/>
      <point x="333" y="349" type="line" smooth="yes"/>
      <point x="333" y="270"/>
      <point x="357" y="213"/>
      <point x="413" y="213" type="curve" smooth="yes"/>
      <point x="455" y="213"/>
      <point x="477" y="244"/>
      <point x="490" y="306" type="curve"/>
    </contour>
  </outline>
</glyph>
<glyph name="guillemotleft" format="1">
  <advance width="481"/>
  <unicode hex="00AB"/>
  <outline>
    <contour>
      <point x="450" y="74" type="line"/>
      <point x="387" y="74" type="line"/>
      <point x="228" y="262" type="line"/>
      <point x="387" y="450" type="line"/>
      <point x="450" y="450" type="line"/>
      <point x="341" y="262" type="line"/>
    </contour>
    <contour>
      <point x="245" y="74" type="line"/>
      <point x="182" y="74" type="line"/>
      <point x="23" y="262" type="line"/>
      <point x="182" y="450" type="line"/>
      <point x="245" y="450" type="line"/>
      <point x="136" y="262" type="line"/>
    </contour>
  </outline>
</glyph>
<glyph name="paragraph" format="1">
  <advance width="540"/>
  <unicode hex="00B6"/>
  <outline>
    <contour>
      <point x="465" y="0" type="line"/>
      <point x="410" y="0" type="line"/>
      <point x="410" y="670" type="line"/>
      <point x="316" y="670" type="line"/>
      <point x="316" y="0" type="line"/>
      <point x="261" y="0" type="line"/>
      <point x="261" y="337" type="line"/>
      <point x="112" y="340"/>
      <point x="30" y="411"/>
      <point x="30" y="527" type="curve" smooth="yes"/>
      <point x="30" y="652"/>
      <point x="120" y="720"/>
      <point x="264" y="720" type="curve" smooth="yes"/>
      <point x="465" y="720" type="line"/>
    </contour>
  </outline>
</glyph>
<glyph name="periodcentered" format="1">
  <advance width="210"/>
  <unicode hex="00B7"/>
  <outline>
    <contour>
      <point x="173" y="278" type="curve" smooth="yes"/>
      <point x="173" y="239"/>
      <point x="144" y="210"/>
      <point x="105" y="210" type="curve" smooth="yes"/>
      <point x="66" y="210"/>
      <point x="38" y="239"/>
      <point x="38" y="278" type="curve" smooth="yes"/>
      <point x="38" y="317"/>
      <point x="66" y="346"/>
      <point x="105" y="346" type="curve" smooth="yes"/>
      <point x="144" y="346"/>
      <point x="173" y="317"/>
    </contour>
  </outline>
</glyph>
<glyph name="ordmasculine" format="1">
  <advance width="390"/>
  <unicode hex="00BA"/>
  <outline>
    <contour>
      <point x="345" y="545" type="curve" smooth="yes"/>
      <point x="345" y="434"/>
      <point x="287" y="363"/>
      <point x="195" y="363" type="curve" smooth="yes"/>
      <point x="103" y="363"/>
      <point x="46" y="434"/>
      <point x="46" y="545" type="curve" smooth="yes"/>
      <point x="46" y="656"/>
      <point x="103" y="727"/>
      <point x="195" y="727" type="curve" smooth="yes"/>
      <point x="287" y="727"/>
      <point x="345" y="656"/>
    </contour>
    <contour>
      <point x="338" y="251" type="line"/>
      <point x="53" y="251" type="line"/>
      <point x="53" y="297" type="line"/>
      <point x="338" y="297" type="line"/>
    </contour>
    <contour>
      <point x="268" y="544" type="curve" smooth="yes"/>
      <point x="268" y="629"/>
      <point x="243" y="677"/>
      <point x="195" y="677" type="curve" smooth="yes"/>
      <point x="148" y="677"/>
      <point x="122" y="630"/>
      <point x="122" y="546" type="curve" smooth="yes"/>
      <point x="122" y="461"/>
      <point x="148" y="413"/>
      <point x="195" y="413" type="curve" smooth="yes"/>
      <point x="243" y="413"/>
      <point x="268" y="460"/>
    </contour>
  </outline>
</glyph>
<glyph name="questiondown" format="1">
  <advance width="469"/>
  <unicode hex="00BF"/>
  <outline>
    <contour>
      <point x="323" y="662" type="curve" smooth="yes"/>
      <point x="323" y="625"/>
      <point x="295" y="597"/>
      <point x="258" y="597" type="curve" smooth="yes"/>
      <point x="221" y="597"/>
      <point x="193" y="625"/>
      <point x="193" y="662" type="curve" smooth="yes"/>
      <point x="193" y="699"/>
      <point x="221" y="727"/>
      <point x="258" y="727" type="curve" smooth="yes"/>
      <point x="295" y="727"/>
      <point x="323" y="699"/>
    </contour>
    <contour>
      <point x="452" y="145" type="line"/>
      <point x="411" y="45"/>
      <point x="349" y="-12"/>
      <point x="233" y="-12" type="curve" smooth="yes"/>
      <point x="110" y="-12"/>
      <point x="38" y="61"/>
      <point x="38" y="160" type="curve" smooth="yes"/>
      <point x="38" y="243"/>
      <point x="70" y="281"/>
      <point x="145" y="344" type="curve" smooth="yes"/>
      <point x="201" y="391"/>
      <point x="220" y="420"/>
      <point x="223" y="499" type="curve"/>
      <point x="291" y="499" type="line"/>
      <point x="298" y="390"/>
      <point x="281" y="352"/>
      <point x="216" y="292" type="curve" smooth="yes"/>
      <point x="167" y="248"/>
      <point x="147" y="212"/>
      <point x="147" y="165" type="curve" smooth="yes"/>
      <point x="147" y="111"/>
      <point x="180" y="73"/>
      <point x="238" y="73" type="curve" smooth="yes"/>
      <point x="299" y="73"/>
      <point x="334" y="104"/>
      <point x="369" y="183" type="curve"/>
    </contour>
  </outline>
</glyph>
<glyph name="Eth" format="1">
  <advance width="667"/>
  <unicode hex="00D0"/>
  <outline>
    <contour>
      <point x="622" y="349" type="line" smooth="yes"/>
      <point x="622" y="125"/>
      <point x="506" y="0"/>
      <point x="314" y="0" type="curve" smooth="yes"/>
      <point x="109" y="0" type="line"/>
      <point x="109" y="330" type="line"/>
      <point x="24" y="330" type="line"/>
      <point x="24" y="419" type="line"/>
      <point x="109" y="419" type="line"/>
      <point x="109" y="720" type="line"/>
      <point x="317" y="720" type="line" smooth="yes"/>
      <point x="510" y="720"/>
      <point x="622" y="595"/>
      <point x="622" y="372" type="curve" smooth="yes"/>
    </contour>
    <contour>
      <point x="504" y="339" type="curve" smooth="yes"/>
      <point x="504" y="380" type="line" smooth="yes"/>
      <point x="504" y="546"/>
      <point x="438" y="632"/>
      <point x="310" y="632" type="curve" smooth="yes"/>
      <point x="217" y="632" type="line"/>
      <point x="217" y="419" type="line"/>
      <point x="339" y="419" type="line"/>
      <point x="339" y="330" type="line"/>
      <point x="217" y="330" type="line"/>
      <point x="217" y="88" type="line"/>
      <point x="313" y="88" type="line" smooth="yes"/>
      <point x="435" y="88"/>
      <point x="504" y="174"/>
    </contour>
  </outline>
</glyph>
<glyph name="Oslash" format="1">
  <advance width="631"/>
  <unicode hex="00D8"/>
  <outline>
    <contour>
      <point x="585" y="346" type="line" smooth="yes"/>
      <point x="585" y="122"/>
      <point x="482" y="-12"/>
      <point x="315" y="-12" type="curve" smooth="yes"/>
      <point x="263" y="-12"/>
      <point x="217" y="2"/>
      <point x="179" y="29" type="curve"/>
      <point x="117" y="-95" type="line"/>
      <point x="46" y="-95" type="line"/>
      <point x="131" y="66" type="line"/>
      <point x="76" y="126"/>
      <point x="46" y="222"/>
      <point x="46" y="344" type="curve" smooth="yes"/>
      <point x="46" y="374" type="line" smooth="yes"/>
      <point x="46" y="598"/>
      <point x="149" y="732"/>
      <point x="315" y="732" type="curve" smooth="yes"/>
      <point x="368" y="732"/>
      <point x="414" y="718"/>
      <point x="451" y="691" type="curve"/>
      <point x="514" y="817" type="line"/>
      <point x="585" y="817" type="line"/>
      <point x="499" y="655" type="line"/>
      <point x="554" y="594"/>
      <point x="585" y="499"/>
      <point x="585" y="376" type="curve" smooth="yes"/>
    </contour>
    <contour>
      <point x="410" y="608" type="line"/>
      <point x="386" y="634"/>
      <point x="354" y="648"/>
      <point x="315" y="648" type="curve" smooth="yes"/>
      <point x="211" y="648"/>
      <point x="158" y="546"/>
      <point x="158" y="387" type="curve" smooth="yes"/>
      <point x="158" y="334" type="line" smooth="yes"/>
      <point x="158" y="269"/>
      <point x="169" y="213"/>
      <point x="193" y="173" type="curve"/>
    </contour>
    <contour>
      <point x="473" y="333" type="curve" smooth="yes"/>
      <point x="473" y="386" type="line" smooth="yes"/>
      <point x="473" y="451"/>
      <point x="461" y="508"/>
      <point x="438" y="548" type="curve"/>
      <point x="220" y="112" type="line"/>
      <point x="245" y="86"/>
      <point x="276" y="72"/>
      <point x="315" y="72" type="curve" smooth="yes"/>
      <point x="420" y="72"/>
      <point x="473" y="174"/>
    </contour>
  </outline>
</glyph>
<glyph name="ccedilla" format="1">
  <advance width="467"/>
  <unicode hex="00E7"/>
  <outline>
    <contour>
      <point x="442" y="138" type="line"/>
      <point x="414" y="47"/>
      <point x="356" y="-4"/>
      <point x="266" y="-10" type="curve"/>
      <point x="239" y="-50" type="line"/>
      <point x="252" y="-46"/>
      <point x="268" y="-43"/>
      <point x="286" y="-43" type="curve" smooth="yes"/>
      <point x="333" y="-43"/>
      <point x="365" y="-62"/>
      <point x="365" y="-100" type="curve" smooth="yes"/>
      <point x="365" y="-164"/>
      <point x="290" y="-194"/>
      <point x="129" y="-191" type="curve"/>
      <point x="129" y="-164" type="line"/>
      <point x="252" y="-162"/>
      <point x="293" y="-143"/>
      <point x="293" y="-114" type="curve" smooth="yes"/>
      <point x="293" y="-97"/>
      <point x="280" y="-88"/>
      <point x="256" y="-88" type="curve" smooth="yes"/>
      <point x="236" y="-88"/>
      <point x="219" y="-92"/>
      <point x="201" y="-99" type="curve"/>
      <point x="174" y="-82" type="line"/>
      <point x="224" y="-9" type="line"/>
      <point x="109" y="4"/>
      <point x="36" y="104"/>
      <point x="36" y="254" type="curve" smooth="yes"/>
      <point x="36" y="269" type="line" smooth="yes"/>
      <point x="36" y="428"/>
      <point x="120" y="534"/>
      <point x="253" y="534" type="curve" smooth="yes"/>
      <point x="354" y="534"/>
      <point x="413" y="483"/>
      <point x="439" y="386" type="curve"/>
      <point x="345" y="364" type="line"/>
      <point x="326" y="429"/>
      <point x="303" y="462"/>
      <point x="251" y="462" type="curve" smooth="yes"/>
      <point x="182" y="462"/>
      <point x="143" y="392"/>
      <point x="143" y="266" type="curve" smooth="yes"/>
      <point x="143" y="259" type="line" smooth="yes"/>
      <point x="143" y="133"/>
      <point x="182" y="62"/>
      <point x="253" y="62" type="curve" smooth="yes"/>
      <point x="300" y="62"/>
      <point x="328" y="92"/>
      <point x="350" y="160" type="curve"/>
    </contour>
  </outline>
</glyph>
<glyph name="divide" format="1">
  <advance width="600"/>
  <unicode hex="00F7"/>
  <outline>
    <contour>
      <point x="367" y="570" type="curve" smooth="yes"/>
      <point x="367" y="532"/>
      <point x="338" y="504"/>
      <point x="300" y="504" type="curve" smooth="yes"/>
      <point x="262" y="504"/>
      <point x="233" y="532"/>
      <point x="233" y="570" type="curve" smooth="yes"/>
      <point x="233" y="608"/>
      <point x="262" y="637"/>
      <point x="300" y="637" type="curve" smooth="yes"/>
      <point x="338" y="637"/>
      <point x="367" y="608"/>
    </contour>
    <contour>
      <point x="558" y="310" type="line"/>
      <point x="42" y="310" type="line"/>
      <point x="42" y="400" type="line"/>
      <point x="558" y="400" type="line"/>
    </contour>
    <contour>
      <point x="367" y="140" type="curve" smooth="yes"/>
      <point x="367" y="102"/>
      <point x="338" y="73"/>
      <point x="300" y="73" type="curve" smooth="yes"/>
      <point x="262" y="73"/>
      <point x="233" y="102"/>
      <point x="233" y="140" type="curve" smooth="yes"/>
      <point x="233" y="178"/>
      <point x="262" y="206"/>
      <point x="300" y="206" type="curve" smooth="yes"/>
      <point x="338" y="206"/>
      <point x="367" y="178"/>
    </contour>
  </outline>
</glyph>
<glyph name="circumflex" format="1">
  <advance width="500"/>
  <unicode hex="02C6"/>
  <outline>
    <contour>
      <point x="411" y="589" type="line"/>
      <point x="356" y="589" type="line"/>
      <point x="249" y="683" type="line"/>
      <point x="142" y="589" type="line"/>
      <point x="89" y="589" type="line"/>
      <point x="208" y="751" type="line"/>
      <point x="292" y="751" type="line"/>
    </contour>
  </outline>
</glyph>
<glyph name="dotaccent" format="1">
  <advance width="500"/>
  <unicode hex="02D9"/>
  <outline>
    <contour>
      <point x="300" y="592" type="line"/>
      <point x="200" y="592" type="line"/>
      <point x="200" y="698" type="line"/>
      <point x="300" y="698" type="line"/>
    </contour>
  </outline>
</glyph>
<glyph name="ring" format="1">
  <advance width="500"/>
  <unicode hex="02DA"/>
  <outline>
    <contour>
      <point x="360" y="681" type="curve" smooth="yes"/>
      <point x="360" y="624"/>
      <point x="317" y="585"/>
      <point x="250" y="585" type="curve" smooth="yes"/>
      <point x="183" y="585"/>
      <point x="140" y="624"/>
      <point x="140" y="681" type="curve" smooth="yes"/>
      <point x="140" y="736"/>
      <point x="183" y="775"/>
      <point x="250" y="775" type="curve" smooth="yes"/>
      <point x="317" y="775"/>
      <point x="360" y="736"/>
    </contour>
    <contour>
      <point x="303" y="681" type="curve" smooth="yes"/>
      <point x="303" y="713"/>
      <point x="281" y="736"/>
      <point x="250" y="736" type="curve" smooth="yes"/>
      <point x="219" y="736"/>
      <point x="197" y="713"/>
      <point x="197" y="681" type="curve" smooth="yes"/>
      <point x="197" y="648"/>
      <point x="219" y="624"/>
      <point x="250" y="624" type="curve" smooth="yes"/>
      <point x="281" y="624"/>
      <point x="303" y="648"/>
    </contour>
  </outline>
</glyph>
<glyph name="ogonek" format="1">
  <advance width="500"/>
  <unicode hex="02DB"/>
  <outline>
    <contour>
      <point x="381" y="-156" type="line"/>
      <point x="339" y="-178"/>
      <point x="297" y="-190"/>
      <point x="250" y="-190" type="curve" smooth="yes"/>
      <point x="185" y="-190"/>
      <point x="146" y="-162"/>
      <point x="146" y="-115" type="curve" smooth="yes"/>
      <point x="146" y="-71"/>
      <point x="184" y="-31"/>
      <point x="243" y="0" type="curve"/>
      <point x="295" y="0" type="line"/>
      <point x="244" y="-36"/>
      <point x="223" y="-70"/>
      <point x="223" y="-101" type="curve" smooth="yes"/>
      <point x="223" y="-127"/>
      <point x="243" y="-144"/>
      <point x="275" y="-144" type="curve" smooth="yes"/>
      <point x="306" y="-144"/>
      <point x="332" y="-138"/>
      <point x="367" y="-125" type="curve"/>
    </contour>
  </outline>
</glyph>
<glyph name="hungarumlaut" format="1">
  <advance width="500"/>
  <unicode hex="02DD"/>
  <outline>
    <contour>
      <point x="454" y="743" type="line"/>
      <point x="311" y="592" type="line"/>
      <point x="245" y="592" type="line"/>
      <point x="330" y="743" type="line"/>
    </contour>
    <contour>
      <point x="263" y="743" type="line"/>
      <point x="119" y="592" type="line"/>
      <point x="54" y="592" type="line"/>
      <point x="139" y="743" type="line"/>
    </contour>
  </outline>
</glyph>
<glyph name="quotesinglbase" format="1">
  <advance width="210"/>
  <unicode hex="201A"/>
  <outline>
    <contour>
      <point x="177" y="130" type="line"/>
      <point x="91" y="-117" type="line"/>
      <point x="29" y="-117" type="line"/>
      <point x="59" y="130" type="line"/>
    </contour>
  </outline>
</glyph>
<glyph name="quotedblleft" format="1">
  <advance width="386"/>
  <unicode hex="201C"/>
  <outline>
    <contour>
      <point x="350" y="473" type="line"/>
      <point x="290" y="473" type="line"/>
      <point x="203" y="720" type="line"/>
      <point x="319" y="720" type="line"/>
    </contour>
    <contour>
      <point x="172" y="473" type="line"/>
      <point x="112" y="473" type="line"/>
      <point x="25" y="720" type="line"/>
      <point x="141" y="720" type="line"/>
    </contour>
  </outline>
</glyph>
<glyph name="daggerdbl" format="1">
  <advance width="486"/>
  <unicode hex="2021"/>
  <outline>
    <contour>
      <point x="442" y="162" type="line"/>
      <point x="272" y="189" type="line"/>
      <point x="301" y="0" type="line"/>
      <point x="185" y="0" type="line"/>
      <point x="213" y="189" type="line"/>
      <point x="43" y="162" type="line"/>
      <point x="43" y="249" type="line"/>
      <point x="213" y="223" type="line"/>
      <point x="187" y="360" type="line"/>
      <point x="213" y="497" type="line"/>
      <point x="43" y="471" type="line"/>
      <point x="43" y="558" type="line"/>
      <point x="213" y="531" type="line"/>
      <point x="185" y="720" type="line"/>
      <point x="301" y="720" type="line"/>
      <point x="272" y="531" type="line"/>
      <point x="442" y="558" type="line"/>
      <point x="442" y="471" type="line"/>
      <point x="272" y="497" type="line"/>
      <point x="298" y="360" type="line"/>
      <point x="272" y="223" type="line"/>
      <point x="442" y="249" type="line"/>
    </contour>
  </outline>
</glyph>
<glyph name="ellipsis" format="1">
  <advance width="651"/>
  <unicode hex="2026"/>
  <outline>
    <contour>
      <point x="611" y="57" type="curve" smooth="yes"/>
      <point x="611" y="20"/>
      <point x="584" y="-7"/>
      <point x="547" y="-7" type="curve" smooth="yes"/>
      <point x="511" y="-7"/>
      <point x="484" y="20"/>
      <point x="484" y="57" type="curve" smooth="yes"/>
      <point x="484" y="93"/>
      <point x="511" y="120"/>
      <point x="547" y="120" type="curve" smooth="yes"/>
      <point x="584" y="120"/>
      <point x="611" y="93"/>
    </contour>
    <contour>
      <point x="389" y="57" type="curve" smooth="yes"/>
      <point x="389" y="20"/>
      <point x="362" y="-7"/>
      <point x="325" y="-7" type="curve" smooth="yes"/>
      <point x="289" y="-7"/>
      <point x="262" y="20"/>
      <point x="262" y="57" type="curve" smooth="yes"/>
      <point x="262" y="93"/>
      <point x="289" y="120"/>
      <point x="325" y="120" type="curve" smooth="yes"/>
      <point x="362" y="120"/>
      <point x="389" y="93"/>
    </contour>
    <contour>
      <point x="167" y="57" type="curve" smooth="yes"/>
      <point x="167" y="20"/>
      <point x="140" y="-7"/>
      <point x="103" y="-7" type="curve" smooth="yes"/>
      <point x="67" y="-7"/>
      <point x="40" y="20"/>
      <point x="40" y="57" type="curve" smooth="yes"/>
      <point x="40" y="93"/>
      <point x="67" y="120"/>
      <point x="103" y="120" type="curve" smooth="yes"/>
      <point x="140" y="120"/>
      <point x="167" y="93"/>
    </contour>
  </outline>
</glyph>
<glyph name="perthousand" format="1">
  <advance width="1279"/>
  <unicode hex="2030"/>
  <outline>
    <contour>
      <point x="1249" y="194" type="curve" smooth="yes"/>
      <point x="1249" y="70"/>
      <point x="1174" y="-7"/>
      <point x="1074" y="-7" type="curve" smooth="yes"/>
      <point x="973" y="-7"/>
      <point x="900" y="68"/>
      <point x="900" y="194" type="curve" smooth="yes"/>
      <point x="900" y="319"/>
      <point x="975" y="396"/>
      <point x="1076" y="396" type="curve" smooth="yes"/>
      <point x="1176" y="396"/>
      <point x="1249" y="320"/>
    </contour>
    <contour>
      <point x="848" y="194" type="curve" smooth="yes"/>
      <point x="848" y="70"/>
      <point x="773" y="-7"/>
      <point x="673" y="-7" type="curve" smooth="yes"/>
      <point x="572" y="-7"/>
      <point x="499" y="68"/>
      <point x="499" y="194" type="curve" smooth="yes"/>
      <point x="499" y="319"/>
      <point x="574" y="396"/>
      <point x="675" y="396" type="curve" smooth="yes"/>
      <point x="775" y="396"/>
      <point x="848" y="320"/>
    </contour>
    <contour>
      <point x="708" y="720" type="line"/>
      <point x="464" y="349" type="line"/>
      <point x="266" y="0" type="line"/>
      <point x="170" y="0" type="line"/>
      <point x="414" y="371" type="line"/>
      <point x="612" y="720" type="line"/>
    </contour>
    <contour>
      <point x="379" y="526" type="curve" smooth="yes"/>
      <point x="379" y="401"/>
      <point x="304" y="324"/>
      <point x="203" y="324" type="curve" smooth="yes"/>
      <point x="103" y="324"/>
      <point x="30" y="400"/>
      <point x="30" y="526" type="curve" smooth="yes"/>
      <point x="30" y="650"/>
      <point x="105" y="727"/>
      <point x="205" y="727" type="curve" smooth="yes"/>
      <point x="306" y="727"/>
      <point x="379" y="652"/>
    </contour>
    <contour>
      <point x="1165" y="193" type="curve" smooth="yes"/>
      <point x="1165" y="277"/>
      <point x="1132" y="329"/>
      <point x="1075" y="329" type="curve" smooth="yes"/>
      <point x="1018" y="329"/>
      <point x="984" y="279"/>
      <point x="984" y="195" type="curve" smooth="yes"/>
      <point x="984" y="112"/>
      <point x="1017" y="60"/>
      <point x="1075" y="60" type="curve" smooth="yes"/>
      <point x="1132" y="60"/>
      <point x="1165" y="110"/>
    </contour>
    <contour>
      <point x="764" y="193" type="curve" smooth="yes"/>
      <point x="764" y="277"/>
      <point x="731" y="329"/>
      <point x="674" y="329" type="curve" smooth="yes"/>
      <point x="616" y="329"/>
      <point x="583" y="279"/>
      <point x="583" y="195" type="curve" smooth="yes"/>
      <point x="583" y="112"/>
      <point x="616" y="60"/>
      <point x="674" y="60" type="curve" smooth="yes"/>
      <point x="731" y="60"/>
      <point x="764" y="110"/>
    </contour>
    <contour>
      <point x="295" y="525" type="curve" smooth="yes"/>
      <point x="295" y="608"/>
      <point x="262" y="660"/>
      <point x="204" y="660" type="curve" smooth="yes"/>
      <point x="147" y="660"/>
      <point x="114" y="610"/>
      <point x="114" y="527" type="curve" smooth="yes"/>
      <point x="114" y="443"/>
      <point x="147" y="391"/>
      <point x="204" y="391" type="curve" smooth="yes"/>
      <point x="261" y="391"/>
      <point x="295" y="441"/>
    </contour>
  </outline>
</glyph>
<glyph name="guilsinglright" format="1">
  <advance width="276"/>
  <unicode hex="203A"/>
  <outline>
    <contour>
      <point x="253" y="262" type="line"/>
      <point x="94" y="74" type="line"/>
      <point x="31" y="74" type="line"/>
      <point x="140" y="262" type="line"/>
      <point x="31" y="450" type="line"/>
      <point x="94" y="450" type="line"/>
    </contour>
  </outline>
</glyph>
<glyph name="Euro" format="1">
  <advance width="594"/>
  <unicode hex="20AC"/>
  <outline>
    <contour>
      <point x="561" y="168" type="line"/>
      <point x="510" y="58"/>
      <point x="442" y="-12"/>
      <point x="312" y="-12" type="curve" smooth="yes"/>
      <point x="150" y="-12"/>
      <point x="46" y="120"/>
      <point x="46" y="345" type="curve" smooth="yes"/>
      <point x="46" y="375" type="line" smooth="yes"/>
      <point x="46" y="599"/>
      <point x="149" y="732"/>
      <point x="315" y="732" type="curve" smooth="yes"/>
      <point x="441" y="732"/>
      <point x="509" y="675"/>
      <point x="557" y="563" type="curve"/>
      <point x="470" y="512" type="line"/>
      <point x="434" y="601"/>
      <point x="390" y="645"/>
      <point x="317" y="645" type="curve" smooth="yes"/>
      <point x="229" y="645"/>
      <point x="178" y="572"/>
      <point x="165" y="458" type="curve"/>
      <point x="377" y="458" type="line"/>
      <point x="377" y="402" type="line"/>
      <point x="161" y="402" type="line"/>
      <point x="161" y="392"/>
      <point x="160" y="382"/>
      <point x="160" y="372" type="curve" smooth="yes"/>
      <point x="160" y="345" type="line" smooth="yes"/>
      <point x="160" y="333"/>
      <point x="161" y="319"/>
      <point x="162" y="308" type="curve"/>
      <point x="377" y="308" type="line"/>
      <point x="377" y="252" type="line"/>
      <point x="166" y="252" type="line"/>
      <point x="181" y="145"/>
      <point x="234" y="75"/>
      <point x="323" y="75" type="curve" smooth="yes"/>
      <point x="397" y="75"/>
      <point x="444" y="123"/>
      <point x="481" y="214" type="curve"/>
    </contour>
  </outline>
</glyph>
<glyph name="uni2117" format="1">
  <advance width="828"/>
  <unicode hex="2117"/>
  <outline>
    <contour>
      <point x="786" y="360" type="curve" smooth="yes"/>
      <point x="786" y="149"/>
      <point x="625" y="-12"/>
      <point x="413" y="-12" type="curve" smooth="yes"/>
      <point x="202" y="-12"/>
      <point x="42" y="148"/>
      <point x="42" y="360" type="curve" smooth="yes"/>
      <point x="42" y="571"/>
      <point x="203" y="732"/>
      <point x="414" y="732" type="curve" smooth="yes"/>
      <point x="626" y="732"/>
      <point x="786" y="572"/>
    </contour>
    <contour>
      <point x="746" y="360" type="curve" smooth="yes"/>
      <point x="746" y="552"/>
      <point x="606" y="697"/>
      <point x="413" y="697" type="curve" smooth="yes"/>
      <point x="221" y="697"/>
      <point x="82" y="553"/>
      <point x="82" y="360" type="curve" smooth="yes"/>
      <point x="82" y="168"/>
      <point x="222" y="23"/>
      <point x="414" y="23" type="curve" smooth="yes"/>
      <point x="607" y="23"/>
      <point x="746" y="167"/>
    </contour>
    <contour>
      <point x="581" y="446" type="curve" smooth="yes"/>
      <point x="581" y="363"/>
      <point x="527" y="318"/>
      <point x="430" y="318" type="curve" smooth="yes"/>
      <point x="375" y="318" type="line"/>
      <point x="375" y="155" type="line"/>
      <point x="297" y="155" type="line"/>
      <point x="297" y="569" type="line"/>
      <point x="434" y="569" type="line" smooth="yes"/>
      <point x="525" y="569"/>
      <point x="581" y="526"/>
    </contour>
    <contour>
      <point x="504" y="445" type="curve" smooth="yes"/>
      <point x="504" y="487"/>
      <point x="478" y="511"/>
      <point x="427" y="511" type="curve" smooth="yes"/>
      <point x="372" y="511" type="line"/>
      <point x="372" y="376" type="line"/>
      <point x="429" y="376" type="line" smooth="yes"/>
      <point x="477" y="376"/>
      <point x="504" y="400"/>
    </contour>
  </outline>
</glyph>
<glyph name="trademark" format="1">
  <advance width="780"/>
  <unicode hex="2122"/>
  <outline>
    <contour>
      <point x="722" y="381" type="line"/>
      <point x="662" y="381" type="line"/>
      <point x="662" y="658" type="line"/>
      <point x="660" y="658" type="line"/>
      <point x="570" y="381" type="line"/>
      <point x="508" y="381" type="line"/>
      <point x="418" y="658" type="line"/>
      <point x="416" y="658" type="line"/>
      <point x="416" y="381" type="line"/>
      <point x="358" y="381" type="line"/>
      <point x="358" y="720" type="line"/>
      <point x="454" y="720" type="line"/>
      <point x="538" y="455" type="line"/>
      <point x="541" y="455" type="line"/>
      <point x="626" y="720" type="line"/>
      <point x="722" y="720" type="line"/>
    </contour>
    <contour>
      <point x="300" y="668" type="line"/>
      <point x="198" y="668" type="line"/>
      <point x="198" y="381" type="line"/>
      <point x="134" y="381" type="line"/>
      <point x="134" y="668" type="line"/>
      <point x="32" y="668" type="line"/>
      <point x="32" y="720" type="line"/>
      <point x="300" y="720" type="line"/>
    </contour>
  </outline>
</glyph>
<glyph name="radical" format="1">
  <advance width="582"/>
  <unicode hex="221A"/>
  <outline>
    <contour>
      <point x="558" y="720" type="line"/>
      <point x="304" y="-3" type="line"/>
      <point x="186" y="-3" type="line"/>
      <point x="31" y="340" type="line"/>
      <point x="143" y="340" type="line"/>
      <point x="246" y="88" type="line"/>
      <point x="440" y="720" type="line"/>
    </contour>
  </outline>
</glyph>
<glyph name="f_f_l" format="1">
  <advance width="906"/>
  <unicode hex="FB04"/>
  <outline>
    <contour>
      <point x="839" y="0" type="line"/>
      <point x="732" y="0" type="line"/>
      <point x="732" y="736" type="line"/>
      <point x="839" y="759" type="line"/>
    </contour>
    <contour>
      <point x="674" y="670" type="line"/>
      <point x="653" y="679"/>
      <point x="631" y="685"/>
      <point x="598" y="685" type="curve" smooth="yes"/>
      <point x="553" y="685"/>
      <point x="529" y="661"/>
      <point x="529" y="607" type="curve" smooth="yes"/>
      <point x="529" y="521" type="line"/>
      <point x="657" y="521" type="line"/>
      <point x="657" y="447" type="line"/>
      <point x="529" y="447" type="line"/>
      <point x="529" y="0" type="line"/>
      <point x="423" y="0" type="line"/>
      <point x="423" y="447" type="line"/>
      <point x="220" y="447" type="line"/>
      <point x="220" y="0" type="line"/>
      <point x="114" y="0" type="line"/>
      <point x="114" y="447" type="line"/>
      <point x="15" y="447" type="line"/>
      <point x="15" y="521" type="line"/>
      <point x="114" y="521" type="line"/>
      <point x="114" y="604" type="line" smooth="yes"/>
      <point x="114" y="707"/>
      <point x="171" y="759"/>
      <point x="268" y="759" type="curve" smooth="yes"/>
      <point x="312" y="759"/>
      <point x="339" y="754"/>
      <point x="365" y="747" type="curve"/>
      <point x="365" y="670" type="line"/>
      <point x="344" y="679"/>
      <point x="322" y="685"/>
      <point x="289" y="685" type="curve" smooth="yes"/>
      <point x="244" y="685"/>
      <point x="220" y="661"/>
      <point x="220" y="607" type="curve" smooth="yes"/>
      <point x="220" y="521" type="line"/>
      <point x="423" y="521" type="line"/>
      <point x="423" y="604" type="line" smooth="yes"/>
      <point x="423" y="707"/>
      <point x="480" y="759"/>
      <point x="577" y="759" type="curve" smooth="yes"/>
      <point x="621" y="759"/>
      <point x="648" y="754"/>
      <point x="674" y="747" type="curve"/>
    </contour>
  </outline>
</glyph>
<glyph name="bullet" format="1">
  <advance width="393"/>
  <outline>
    <contour>
      <point x="345" y="373" type="curve" smooth="yes"/>
      <point x="345" y="290"/>
      <point x="280" y="225"/>
      <point x="197" y="225" type="curve" smooth="yes"/>
      <point x="114" y="225"/>
      <point x="49" y="290"/>
      <point x="49" y="373" type="curve" smooth="yes"/>
      <point x="49" y="456"/>
      <point x="114" y="521"/>
      <point x="197" y="521" type="curve" smooth="yes"/>
      <point x="280" y="521"/>
      <point x="345" y="456"/>
    </contour>
  </outline>
</glyph>
